<svg xmlns="http://www.w3.org/2000/svg" viewBox="0 0 140 140">
  <defs>
    <linearGradient id="gradBluePurple" x1="0%" y1="0%" x2="100%" y2="100%">
      <stop offset="0%" stop-color="#3B82F6"/>
      <stop offset="100%" stop-color="#421071ff"/>
    </linearGradient>
  </defs>
  <g transform="translate(20, 10)">
    <!-- Flame Shape -->
    <path d="M31.5 49.6C55 41.5 59 20.4 56 1c0-.7.6-1.2 1.2-1C79.7 11 105 35 105 71c0 27.6-21.4 52-52.5 52a50 50 0 01-28.2-92.7c.6-.4 1.4 0 1.4.7.3 3.7 1.3 13 5.4 18.6z" fill="url(#gradBluePurple)"/>
    <!-- Ship Icon (Bigger) -->
    <g fill="white" transform="translate(22, 55) scale(1.2)">
      <path d="M2 20 L8 32 H42 L48 20 Z" />
      <rect x="8" y="8" width="8" height="10" rx="1" />
      <rect x="18" y="8" width="8" height="10" rx="1" />
      <rect x="28" y="2" width="12" height="16" rx="2" />
    </g>
  </g>
</svg>
        